<svg id="visual" viewBox="0 0 1920 1080" width="1920" height="1080" xmlns="http://www.w3.org/2000/svg" xmlns:xlink="http://www.w3.org/1999/xlink" version="1.1"><rect x="0" y="0" width="1920" height="1080" fill="#001220"></rect><path d="M0 769L32 764.3C64 759.7 128 750.3 192 756.7C256 763 320 785 384 768.3C448 751.7 512 696.3 576 696.3C640 696.3 704 751.7 768 767C832 782.3 896 757.7 960 754.7C1024 751.7 1088 770.3 1152 771.7C1216 773 1280 757 1344 756.2C1408 755.3 1472 769.7 1536 760.7C1600 751.7 1664 719.3 1728 700.5C1792 681.7 1856 676.3 1888 673.7L1920 671L1920 1081L1888 1081C1856 1081 1792 1081 1728 1081C1664 1081 1600 1081 1536 1081C1472 1081 1408 1081 1344 1081C1280 1081 1216 1081 1152 1081C1088 1081 1024 1081 960 1081C896 1081 832 1081 768 1081C704 1081 640 1081 576 1081C512 1081 448 1081 384 1081C320 1081 256 1081 192 1081C128 1081 64 1081 32 1081L0 1081Z" fill="#fa7268"></path><path d="M0 848L32 848.5C64 849 128 850 192 840C256 830 320 809 384 792C448 775 512 762 576 770.7C640 779.3 704 809.7 768 827.5C832 845.3 896 850.7 960 841.8C1024 833 1088 810 1152 786.2C1216 762.3 1280 737.7 1344 743.2C1408 748.7 1472 784.3 1536 792.2C1600 800 1664 780 1728 763.3C1792 746.7 1856 733.3 1888 726.7L1920 720L1920 1081L1888 1081C1856 1081 1792 1081 1728 1081C1664 1081 1600 1081 1536 1081C1472 1081 1408 1081 1344 1081C1280 1081 1216 1081 1152 1081C1088 1081 1024 1081 960 1081C896 1081 832 1081 768 1081C704 1081 640 1081 576 1081C512 1081 448 1081 384 1081C320 1081 256 1081 192 1081C128 1081 64 1081 32 1081L0 1081Z" fill="#ef5f67"></path><path d="M0 883L32 869.5C64 856 128 829 192 833.3C256 837.7 320 873.3 384 888.2C448 903 512 897 576 878.5C640 860 704 829 768 828.5C832 828 896 858 960 876.3C1024 894.7 1088 901.3 1152 895C1216 888.7 1280 869.3 1344 855.7C1408 842 1472 834 1536 826.2C1600 818.3 1664 810.7 1728 814.3C1792 818 1856 833 1888 840.5L1920 848L1920 1081L1888 1081C1856 1081 1792 1081 1728 1081C1664 1081 1600 1081 1536 1081C1472 1081 1408 1081 1344 1081C1280 1081 1216 1081 1152 1081C1088 1081 1024 1081 960 1081C896 1081 832 1081 768 1081C704 1081 640 1081 576 1081C512 1081 448 1081 384 1081C320 1081 256 1081 192 1081C128 1081 64 1081 32 1081L0 1081Z" fill="#e34c67"></path><path d="M0 938L32 938.7C64 939.3 128 940.7 192 935C256 929.3 320 916.7 384 912.8C448 909 512 914 576 912C640 910 704 901 768 906.5C832 912 896 932 960 943.7C1024 955.3 1088 958.7 1152 944.3C1216 930 1280 898 1344 886.3C1408 874.7 1472 883.3 1536 885.7C1600 888 1664 884 1728 882.8C1792 881.7 1856 883.3 1888 884.2L1920 885L1920 1081L1888 1081C1856 1081 1792 1081 1728 1081C1664 1081 1600 1081 1536 1081C1472 1081 1408 1081 1344 1081C1280 1081 1216 1081 1152 1081C1088 1081 1024 1081 960 1081C896 1081 832 1081 768 1081C704 1081 640 1081 576 1081C512 1081 448 1081 384 1081C320 1081 256 1081 192 1081C128 1081 64 1081 32 1081L0 1081Z" fill="#d53867"></path><path d="M0 966L32 970.8C64 975.7 128 985.3 192 993C256 1000.7 320 1006.3 384 1009C448 1011.7 512 1011.3 576 1002.3C640 993.3 704 975.7 768 977C832 978.3 896 998.7 960 1004.7C1024 1010.7 1088 1002.3 1152 1001.8C1216 1001.3 1280 1008.7 1344 1009C1408 1009.3 1472 1002.7 1536 991.8C1600 981 1664 966 1728 960.8C1792 955.7 1856 960.3 1888 962.7L1920 965L1920 1081L1888 1081C1856 1081 1792 1081 1728 1081C1664 1081 1600 1081 1536 1081C1472 1081 1408 1081 1344 1081C1280 1081 1216 1081 1152 1081C1088 1081 1024 1081 960 1081C896 1081 832 1081 768 1081C704 1081 640 1081 576 1081C512 1081 448 1081 384 1081C320 1081 256 1081 192 1081C128 1081 64 1081 32 1081L0 1081Z" fill="#c62368"></path></svg>